<svg xmlns="http://www.w3.org/2000/svg" width="33.215" height="40.633" viewBox="0 0 33.215 40.633"><defs><style>.a{fill:#717171;}</style></defs><g transform="translate(-3621.262 813)"><path class="a" d="M3644.854-725.31c-.142-.139-.281-.281-.427-.416s-.3-.264-.466-.411c.059,0,.1-.01.138-.01q2.95,0,5.9,0a.237.237,0,0,1,.229.127,14.624,14.624,0,0,1,2.122,5.191,14.516,14.516,0,0,1,.251,3.678,14.454,14.454,0,0,1-1.555,5.788,15.281,15.281,0,0,1-5.713,6.169,15.658,15.658,0,0,1-4.617,1.911,16.175,16.175,0,0,1-3.165.431,16.063,16.063,0,0,1-5.244-.672l-1.3-.4c.006,1.651,0,2.322,0,3.973q0,1.275,0,2.549v.172h.232c.758,0,1.516,0,2.273,0a.726.726,0,0,1,.75.615.719.719,0,0,1-.691.83c-.213.008-.427,0-.641,0h-9.85a.729.729,0,0,1-.759-.719.728.728,0,0,1,.764-.728h2.5c0-.264,0-.515,0-.766,0-1.136.013-2.273.015-3.409,0-1.409,0-4.506,0-5.915l-1.144-1.5c-.191-.259-.389-.513-.572-.777a14.647,14.647,0,0,1-2.281-5.187,14.751,14.751,0,0,1-.318-4.195,14.435,14.435,0,0,1,1.638-5.823,15.242,15.242,0,0,1,5.006-5.6,15.706,15.706,0,0,1,5.778-2.431c.37-.075.745-.129,1.118-.19.1-.016.192-.021.3-.031.215-.03,1.137-.087,1.137-.087,1.195-.007,2.389-.005,3.584-.006l13.028-.005v6.056c-1.695,0-8.526,0-10.221,0a.485.485,0,0,1-.22-.049,11.288,11.288,0,0,0-3.521-1.2,11.075,11.075,0,0,0-3.279-.052,11,11,0,0,0-5.188,2.1,10.6,10.6,0,0,0-3.116,3.64,10.16,10.16,0,0,0-1.155,4.307,10.136,10.136,0,0,0,.745,4.31,10.582,10.582,0,0,0,2.836,3.967c0-.009.191.19.191.19.142.1.286.2.427.3a11.065,11.065,0,0,0,5.03,2,8.4,8.4,0,0,0,1.613.105,11.139,11.139,0,0,0,6.831-2.436,10.5,10.5,0,0,0,3.086-3.972,10.022,10.022,0,0,0,.858-4.964,10.319,10.319,0,0,0-2.59-6.072c-.115-.132-.236-.259-.355-.388" transform="translate(0 -76.586)"/><path class="a" d="M3845.12-357.864c-.288.341-.564.7-.87,1.024a7.726,7.726,0,0,1-1.513,1.247.132.132,0,0,1-.186,0,6.322,6.322,0,0,1-2.481-4.275c-.029-.216-.041-.434-.063-.678a8.691,8.691,0,0,0,6.031.651A5.644,5.644,0,0,1,3845.12-357.864Z" transform="translate(-209.795 -433.936)"/><path class="a" d="M4033.554-362.513a8.409,8.409,0,0,0-2.621-5.266c.354-.075.662-.156.975-.2a7.966,7.966,0,0,1,4.417.642.168.168,0,0,1,.118.207,6.238,6.238,0,0,1-.873,2.536A6.552,6.552,0,0,1,4033.554-362.513Z" transform="translate(-392.908 -426.727)"/><path class="a" d="M3933.448-339.915a6.9,6.9,0,0,1,1.972,3.4c.123.482.172.982.259,1.473.016.091-.03.117-.1.144a6.983,6.983,0,0,1-1.872.458,6.8,6.8,0,0,1-3.557-.6l-.132-.064a9.226,9.226,0,0,0,2.158-2.1A7.653,7.653,0,0,0,3933.448-339.915Z" transform="translate(-296.122 -453.727)"/><path class="a" d="M3848.622-493.539c-.384.058-.729.13-1.079.161a7.857,7.857,0,0,1-3.852-.681c-.177-.077-.348-.17-.523-.252a.111.111,0,0,1-.073-.146,6.438,6.438,0,0,1,3.052-4.291c.044-.027.093-.047.15-.076A8.425,8.425,0,0,0,3848.622-493.539Z" transform="translate(-212.751 -301.32)"/><path class="a" d="M4026.937-489.008a8.707,8.707,0,0,0-5.914-.3,7.507,7.507,0,0,1,2.973-4.415A6.324,6.324,0,0,1,4026.937-489.008Z" transform="translate(-383.403 -306.214)"/><path class="a" d="M3953.247-519.971a8.505,8.505,0,0,0-2.995,4.733,7.526,7.526,0,0,1-1.881-4.864A6.865,6.865,0,0,1,3953.247-519.971Z" transform="translate(-313.724 -280.544)"/><rect class="a" width="1.596" height="12.317" rx="0.798" transform="translate(3652.881 -813)"/></g></svg>