<svg xmlns="http://www.w3.org/2000/svg" xmlns:xlink="http://www.w3.org/1999/xlink" width="1920" height="343.484" viewBox="0 0 1920 343.484"><defs><style>.a{fill:url(#a);}</style><linearGradient id="a" x1="0.558" y1="-0.291" x2="0.525" y2="1" gradientUnits="objectBoundingBox"><stop offset="0" stop-color="#fff"/><stop offset="1" stop-color="#ee3337"/></linearGradient></defs><path class="a" d="M1784.61,1315s-1.071-173-.767-172.512l-198.952-16.054c-48.145-3.885-96.474-7.8-143.579-17.866-45.927-9.818-90.172-25.378-135.155-38.461-139.745-40.644-288.625-57.293-433.615-38.568-127.349,16.447-258.681,59.473-380.756,21.831-26.118-8.054-50.926-19.653-77.4-26.6-36.391-9.549-74.754-10.018-112.542-9.054A1567.7,1567.7,0,0,0,119.168,1033.1c-47.031,6.752-94.665,15.668-141.824,9.742s-94.951-30.119-112.734-71.322V1315Z" transform="translate(135.39 -971.516)"/></svg>