<svg xmlns="http://www.w3.org/2000/svg" width="45.816" height="41.422" viewBox="0 0 45.816 41.422"><defs><style>.a{fill:#717171;}</style></defs><g transform="translate(-378.357 -520.976)"><path class="a" d="M514.233,632.647v1.124c.3,0,.591-.007.876,0a1.235,1.235,0,0,1,1.191,1.385c-.013.79-.473,1.377-1.182,1.3a2.159,2.159,0,0,0-2.265,1.145,6.167,6.167,0,0,1-5.347,2.681c-2.313.023-4.626-.007-6.939.022a1.69,1.69,0,0,0-.858.353c-.911.636-1.785,1.326-2.707,1.945a1.077,1.077,0,0,1-.816.068q-5.819-1.839-11.62-3.732a1.231,1.231,0,0,1-.634-.529,9.85,9.85,0,0,1,7.124-14.311,9.669,9.669,0,0,1,8.629,2.864,1.25,1.25,0,0,0,.981.389c2.96-.013,5.92.007,8.879-.012a4.474,4.474,0,0,1,4.126,2.236.922.922,0,0,0,.554.3,3.33,3.33,0,0,0,.7.012,1.256,1.256,0,0,1,1.372,1.386,1.225,1.225,0,0,1-1.351,1.337C514.718,632.618,514.488,632.635,514.233,632.647Zm-25,1.136a3.46,3.46,0,0,0,3.421,3.518,3.49,3.49,0,1,0,.124-6.979A3.475,3.475,0,0,0,489.236,633.783Z" transform="translate(-92.126 -90.885)"/><path class="a" d="M378.595,721.531c1.063.535,2.1,1.041,3.121,1.581a.709.709,0,0,0,.9-.057c.6-.474,1.226-.913,1.857-1.344a.488.488,0,0,0,.227-.633c-.249-.865-.484-1.734-.681-2.612-.081-.363-.274-.46-.6-.507-1.159-.165-2.315-.354-3.473-.534a3.194,3.194,0,0,1,2.928-2.489,6.822,6.822,0,0,1,6.958,4.1,1.18,1.18,0,0,0,.654.559q11.478,3.708,22.968,7.381a3.262,3.262,0,0,1,1.822,5.118,3.054,3.054,0,0,1-3.712,1.221q-4.755-1.511-9.5-3.043c-4.546-1.459-9.089-2.927-13.64-4.367a1.169,1.169,0,0,0-.852.1,6.881,6.881,0,0,1-7.775-.506A3.338,3.338,0,0,1,378.595,721.531Zm33.609,9.216c.157-.16.445-.327.508-.555a1.045,1.045,0,0,0-.236-.706c-.081-.122-.3-.16-.469-.214q-5.724-1.838-11.449-3.67c-2.588-.829-5.177-1.653-7.762-2.491-.473-.153-.833-.068-.986.417s.13.732.557.868c.056.018.11.041.166.059l18.932,6.074C411.667,730.594,411.874,730.65,412.2,730.747Z" transform="translate(0 -171.111)"/><path class="a" d="M422.465,523.436l1,1.048c.574-.6,1.109-1.166,1.657-1.721a.853.853,0,1,1,1.2,1.16c-.556.55-1.132,1.081-1.722,1.641l1.064.99c.25-.278.523-.6.82-.907.49-.5,1.012-.556,1.381-.177.348.358.284.837-.177,1.342-.078.085-.15.174-.231.268l5.174,5.128a11.124,11.124,0,0,0-7.068,3.659l-3.355-3.493c-.241.2-.361.289-.472.389-.461.416-.958.464-1.3.122-.36-.358-.311-.882.153-1.339.307-.3.643-.572.994-.881l-1.124-.974c-.5.532-1.068,1.147-1.652,1.745a.811.811,0,0,1-1.12.118.785.785,0,0,1-.238-1.048,1.4,1.4,0,0,1,.335-.4c.532-.52,1.071-1.034,1.62-1.563l-1-.878c-.079.075-.248.228-.409.388-.887.883-1.364,1.041-1.8.591s-.277-.89.635-1.794c.625-.62,1.26-1.23,1.89-1.845-.408-.611-1.334-1.01-.607-1.868.387-.457.763-.323,1.841.612.618-.628,1.243-1.263,1.87-1.9.193-.2.381-.4.585-.579a.841.841,0,0,1,1.209-.044.859.859,0,0,1-.023,1.214,6.234,6.234,0,0,1-.539.541C422.882,523.138,422.685,523.27,422.465,523.436Z" transform="translate(-33.185 -0.014)"/><path class="a" d="M594,527.453l-1.082,1c.607.576,1.2,1.117,1.763,1.679.477.472.523.971.159,1.334s-.881.306-1.338-.159c-.56-.57-1.1-1.158-1.676-1.763l-1.021,1.029c.378.353.745.673,1.085,1.018.444.45.466.923.09,1.285a.87.87,0,0,1-1.254-.093l-.409-.369c-.934.938-1.84,1.879-2.788,2.775a1.854,1.854,0,0,1-.864.346.61.61,0,0,1-.455-.182,10.826,10.826,0,0,0-5.794-3.021,1.353,1.353,0,0,1-.253-.114l4.868-5.087c-.149-.167-.264-.3-.379-.424a.844.844,0,0,1-.09-1.252.853.853,0,0,1,1.29.1c.338.348.632.739.971,1.141l1.048-1.117c-.621-.587-1.259-1.162-1.863-1.771a.8.8,0,0,1-.039-1.2.861.861,0,0,1,1.214.03,6.585,6.585,0,0,1,.5.5c.422.459.837.924,1.309,1.446l.869-.994.207-.149c-.394-.316-.812-.606-1.175-.954a.815.815,0,0,1-.074-1.285.853.853,0,0,1,1.249.119c.79.789,1.566,1.592,2.375,2.417.618-.375,1.106-1.446,1.912-.542.677.759-.234,1.188-.65,1.8.564.55,1.137,1.1,1.7,1.662.28.275.563.547.824.839a.757.757,0,0,1-.03,1.151.768.768,0,0,1-1.156-.006C594.675,528.263,594.347,527.846,594,527.453Z" transform="translate(-178.061 0)"/><path class="a" d="M556.824,695.853a1.349,1.349,0,0,1,1.386,1.423,1.4,1.4,0,0,1-1.4,1.377,1.439,1.439,0,0,1-1.4-1.447A1.388,1.388,0,0,1,556.824,695.853Z" transform="translate(-156.218 -154.299)"/></g></svg>