<svg xmlns="http://www.w3.org/2000/svg" width="47.193" height="40.572" viewBox="0 0 47.193 40.572"><defs><style>.a{fill:#717171;}</style></defs><g transform="translate(-4448.441 289.776)"><path class="a" d="M4665.232-249.231c-1.62,0-3.244.072-4.859-.019-1.949-.11-3.025-1.224-2.9-2.914.14-1.817,1.258-2.571,3-2.567,1.688,0,3.376,0,5.064-.006.665,0,1.212-.147,1.277-.957.057-.714-.33-.952-.969-.967a1.049,1.049,0,0,1-1.074-.991c-.248-1.21-.2-2.569-2.139-2.543-.569.008-.646-1.175.143-1.268,1.356-.16,1.038-.879.87-1.682-.207-.99-.341-2-.581-2.979-.37-1.509-1.526-1.8-2.628-.69a12.407,12.407,0,0,1-.961,1.023.772.772,0,0,1-1.1.012.71.71,0,0,1,.038-1.068c.089-.1.223-.162.3-.267.629-.829,1.291-2,.68-2.723-.565-.669-1.929-.371-2.9-.122-.488.126-1.208.754-1.419.327-.65-1.32-2.488-1.193-2.933-2.548a1.672,1.672,0,0,1,.569-2.161c.768-.479,1.763-.617,2.153-1.686.137-.375.881-.334,1.264-.012a1.906,1.906,0,0,0,1.509.41c.763-.078,1.852.415,2.2-.44s-.855-1.015-1.336-1.51a4.855,4.855,0,0,1-1.61-2.972c-.157-2.691-.132-5.392-.163-8.089-.01-.9.619-1.125,1.36-1.128,2.768-.012,5.536,0,8.3-.005.942,0,1.3.494,1.291,1.4-.027,2.363.046,4.728-.044,7.088a5.182,5.182,0,0,1-2.107,3.988c-.4.315-1.11.477-1.021,1.126.1.765.843.448,1.32.568.26.065.712.063.754.193.6,1.91,2.151,1.866,3.708,1.9.605.015.718.551.681,1.049-.067.885.418,2.047-.82,2.448-1.742.564-1.667,1.669-1.363,3.156.566,2.773.934,5.586,1.356,8.387a3.537,3.537,0,0,1-.022,1.328c-1.852.309-1.677,2.089-2.423,3.188-.457.672-1.291.667-2.037.676-1.621.02-3.241.015-4.861.023-.874,0-1.745.191-1.758,1.231s.843,1.256,1.724,1.257c2.633,0,5.266,0,7.9.013a9.737,9.737,0,0,1,1.607.116.75.75,0,0,1,.586.925c-.051.418-.431.471-.772.473C4668.473-249.226,4666.853-249.23,4665.232-249.231Zm4.5-22.662c-2.351-.333-2.357-.326-4.011-1.935a1.43,1.43,0,0,0-1.12-.313c-2.358-.007-4.718.04-7.075-.021-1.207-.032-1.3.63-1.232,1.538.094,1.341,1.13.909,1.832.927,5.323.138,5.321.124,6.405,5.416.487,2.373,1.014,4.738,1.462,7.119.175.929.783.98,1.487.942.382-.021,1.116-.248.895-.473-.958-.974-.173-2.811-.4-2.892-1.963-.687.537-3.391-1.792-3.763-.114-.018.089-.562.423-.761,1.052-.624.8-1-.224-1.367-1.167-.424-1-.641-.083-1.551C4667.293-270.02,4668.631-270.59,4669.73-271.892Zm-3.629-10.553c-.042-3.455.3-3.069-2.841-3.105q-1.822-.021-3.645.011c-.518.01-1.036-.052-1.28.668a6,6,0,0,0,2.42,6.845c1.088.6.384,2.086,1.309,2.2,1.357.168.291-1.713,1.521-2.15A3.825,3.825,0,0,0,4666.1-282.445Zm-3.636-5.858v.008c-1.134,0-2.269-.007-3.4,0-.357,0-.656.144-.666.565s.267.6.632.6q3.1.027,6.206.018c.422,0,.806-.134.753-.685-.042-.435-.387-.5-.719-.506C4664.334-288.314,4663.4-288.3,4662.465-288.3Z" transform="translate(-181.996)"/><path class="a" d="M4450.473-184.429c.812,1.241,1.807,1.066,2.722,1.068,6.415.01,12.829-.009,19.243.03.613,0,1.737-.477,1.721.686-.016,1.089-1.114.735-1.774.741-4.118.037-8.238.071-12.355-.005-1.468-.027-2,.386-1.988,1.936.028,4.02-.192,4.162-4.257,4.166-5.339,0-5.339,0-5.339-5.406,0-3.713-.01-7.427,0-11.14.01-2.753.477-3.46,3.12-4.431.767-.282.975-.879,1.269-1.459q1.875-3.7,3.707-7.422a3.271,3.271,0,0,1,3.217-2c4.118.03,8.237,0,12.355.023.529,0,1.339-.286,1.367.7.031,1.1-.843.861-1.458.864-3.916.023-7.833.064-11.748-.013a2.454,2.454,0,0,0-2.644,1.652c-.9,2.033-1.911,4.024-2.983,5.973-.783,1.422-.278,1.724,1.109,1.689,2.092-.054,4.187-.034,6.278.013.515.012,1.377-.269,1.306.752-.058.833-.8.584-1.269.59-3.038.037-6.077.006-9.114.034-2.3.021-2.9.619-2.922,2.851-.016,1.553.089,3.113-.029,4.657-.113,1.484.517,1.793,1.867,1.781,6.684-.055,13.368-.026,20.052-.022.54,0,1.08.015,1.618.05a.646.646,0,0,1,.654.634.675.675,0,0,1-.7.8c-.538.038-1.079.043-1.618.043q-10.127.007-20.255.013A9.955,9.955,0,0,0,4450.473-184.429Zm2.752,7.213c.978-1.375.519-2.665.571-3.881.015-.342-.148-.668-.594-.625a.5.5,0,0,0-.467.546C4452.75-179.936,4452.378-178.653,4453.225-177.215Zm-3.191-2.81c0,.336-.022.674,0,1.008.045.566-.218,1.454.592,1.487.934.038.51-.893.574-1.41a10.646,10.646,0,0,0,.009-1.813c-.024-.506.145-1.244-.6-1.277-.842-.037-.478.751-.566,1.2A4.293,4.293,0,0,0,4450.034-180.026Zm6.557.33c-.257-.668.417-1.945-.6-1.963-1.086-.02-.6,1.267-.575,1.942.024.731-.613,2.081.619,2.079C4456.928-177.64,4456.376-178.967,4456.591-179.7Z" transform="translate(0 -73.401)"/><path class="a" d="M4570.051-73.694c-1.551,0-3.1-.014-4.652,0a2.235,2.235,0,0,1-2.545-2.44c-.218-3.9.306-4.49,4.2-4.491,2.7,0,5.395,0,8.091.01.587,0,1.318-.1,1.331.814.013.979-.782.75-1.326.754-2.966.025-5.934-.007-8.9.031-.6.008-1.638-.347-1.677.562-.043,1.035,1.02.563,1.577.576,2.493.058,4.992-.048,7.481.063.946.042,2.718-.674,2.7.613-.024,1.549-1.842.724-2.838.777-2.555.134-5.122.042-7.684.062-.444,0-1.138-.1-1.192.443-.081.8.712.65,1.187.655,2.966.033,5.933,0,8.9.046.661.01,1.746-.337,1.746.775,0,1.16-1.109.694-1.744.724C4573.155-73.644,4571.6-73.693,4570.051-73.694Z" transform="translate(-102.262 -187.01)"/><path class="a" d="M4478.759-74.686c-.674,0-1.351.035-2.021-.008a1.946,1.946,0,0,1-2.059-2.028c-.037-.942-.012-1.887,0-2.831a1.243,1.243,0,0,1,.111-.589c1.461-2.483,3.867-1.256,5.874-1.38,1.378-.085,2.2.88,2.2,2.353,0,.067,0,.135,0,.2C4483.063-75.132,4482.621-74.669,4478.759-74.686Zm.244-5.306c-1.539-.023-2.981-.408-2.927,1.949.048,2.065,1.269,1.861,2.542,1.819,1.244-.041,2.732.5,2.76-1.792C4481.4-80.084,4480.337-80.172,4479-79.993Z" transform="translate(-23.442 -186.032)"/><path class="a" d="M4851.3-174.131c-.8-.276-2.625.289-2.507-.95.139-1.472,1.841-.554,2.873-.628a7.349,7.349,0,0,1,.8.029c.571.022,1.146.139,1.131.834s-.583.811-1.158.8C4852.1-174.055,4851.772-174.1,4851.3-174.131Z" transform="translate(-357.961 -101.798)"/><path class="a" d="M4599.18-135.549c-.623-.256-2.057.5-2.1-.516-.058-1.517,1.5-.753,2.366-.945a3.781,3.781,0,0,1,.8-.005c.618,0,1.346.006,1.4.784.066,1.012-.821.579-1.328.671A7.163,7.163,0,0,1,4599.18-135.549Z" transform="translate(-132.906 -136.569)"/><path class="a" d="M4604.636-114.582c-.112.409-3.524,2.169-3.878,1.99-.564-.285-.865-.88-.3-1.258a16.546,16.546,0,0,1,3.222-1.633C4604.395-115.759,4604.516-115.065,4604.636-114.582Z" transform="translate(-135.653 -155.785)"/><path class="a" d="M4604.178-169.8c-.812-.42-1.883-.954-2.931-1.531a.611.611,0,0,1-.221-.867c.2-.417.512-.621.96-.4q1.526.746,3.033,1.53a.553.553,0,0,1,.2.845C4605.063-169.932,4604.883-169.639,4604.178-169.8Z" transform="translate(-136.351 -104.694)"/><path class="a" d="M4831.484-237.642c-.583-.112-.948-.579-.581-1.111a9.073,9.073,0,0,1,2.818-2.764c.551-.321,1.029.077,1.035.761C4834.762-240.179,4832.111-237.627,4831.484-237.642Z" transform="translate(-341.84 -43.049)"/><path class="a" d="M4571.949-135.44c-.01.606-.377.681-.8.67a.532.532,0,0,1-.574-.613c0-.432.109-.8.644-.752A.745.745,0,0,1,4571.949-135.44Z" transform="translate(-109.204 -137.372)"/><path class="a" d="M4726.334-210.974c-.019.729-.375.89-.816.792a2.375,2.375,0,0,1-1.9-1.852c-.118-.483.2-.861.662-.714A4.5,4.5,0,0,1,4726.334-210.974Z" transform="translate(-246.024 -68.844)"/></g></svg>