<svg xmlns="http://www.w3.org/2000/svg" width="56.283" height="41.333" viewBox="0 0 56.283 41.333"><defs><style>.a{fill:#717171;}</style></defs><g transform="translate(-4329 -108)"><path class="a" d="M4352.446,293.2c-.386-.107-.778-.194-1.156-.323a6.019,6.019,0,0,1-3.376-2.821,2.731,2.731,0,0,0-.581-.708c-1.03-.881-2.09-1.726-3.11-2.617a1.35,1.35,0,0,1-.425-.765c-.211-1.523-.379-3.051-.549-4.58a.722.722,0,0,1,.083-.512c1.094-1.095,1.068-2.551,1.3-3.924.086-.5.16-1.008.247-1.56a4.651,4.651,0,0,1,.553,0,5.553,5.553,0,0,0,3.439-.807c2.182-1.193,4.417-2.29,6.639-3.41a13.756,13.756,0,0,1,6.666-1.536c2.544.067,5.092.039,7.638.005a8.445,8.445,0,0,1,4.356,1.119,80.8,80.8,0,0,1,9.762,6.425,4.451,4.451,0,0,0,2.143.84q2.547.412,5.087.862a3.636,3.636,0,0,1,2.935,2.358,17.443,17.443,0,0,0,.812,1.8,2.655,2.655,0,0,1,.309,1.777c-.265,1.662-.465,3.335-.675,5.005-.039.311-.184.425-.467.376a2.041,2.041,0,0,0-2.187.983,5.233,5.233,0,0,1-3.253,1.9,3.591,3.591,0,0,0-.354.115h-1.648a1.324,1.324,0,0,0-.248-.1,5.784,5.784,0,0,1-3.158-1.649,1.1,1.1,0,0,0-.862-.349q-11.643.013-23.285,0a2.591,2.591,0,0,0-2.1.73,5.851,5.851,0,0,1-3,1.37Zm13.614-16.958c-.113-1.426-.221-2.8-.326-4.139-3.891-.292-7.637-.175-10.929,2.223a7.419,7.419,0,0,1,.286.788c.1.407.333.523.744.528.859.011,1.716.088,2.575.139Zm-12.9,14.327a3.389,3.389,0,1,0-3.351-3.419A3.4,3.4,0,0,0,4353.161,290.568Zm34.3,0a3.392,3.392,0,0,0,0-6.784,3.392,3.392,0,1,0,0,6.784Zm-18.987-14.165,11.2.769c.013-.047.024-.093.037-.14a63.027,63.027,0,0,0-7.68-4.634c-1.225-.561-2.544-.343-3.894-.359C4368.255,273.516,4368.364,274.932,4368.478,276.405Z" transform="translate(-12.674 -143.866)"/><path class="a" d="M4581.046,108a2.745,2.745,0,0,1,.328.869c.022,3.6.016,7.2.014,10.806,0,.581-.21.887-.607.849-.534-.051-.594-.442-.594-.88,0-3.565-.006-7.131.014-10.7a3.43,3.43,0,0,1,.295-.948Z" transform="translate(-223.574 0)"/><path class="a" d="M4789.206,199.482q-2.61,3.11-5.218,6.22c-.265.316-.573.507-.938.208-.39-.319-.25-.668.03-1q2.46-2.915,4.916-5.834c.445-.527.709-.528,1.211-.035Z" transform="translate(-403.922 -80.708)"/><path class="a" d="M4329,199.043c.5-.494.764-.492,1.209.036q2.46,2.913,4.914,5.832c.244.289.4.588.114.929s-.659.284-1.018-.139q-1.771-2.094-3.532-4.2-.845-1.007-1.687-2.019Z" transform="translate(0 -80.709)"/><path class="a" d="M4515.8,125.5c-.212.176-.4.445-.643.505-.386.1-.592-.187-.658-.56q-.439-2.484-.88-4.967-.469-2.645-.937-5.291c-.032-.18-.062-.361-.084-.542-.047-.381.087-.661.49-.718s.611.166.681.548c.162.9.329,1.8.488,2.7q.709,4,1.412,7.992c.013.072.025.144.038.216Z" transform="translate(-163.408 -5.266)"/><path class="a" d="M4451.576,141.709c-.129.143-.269.433-.453.464a.94.94,0,0,1-.688-.259,1.672,1.672,0,0,1-.273-.647q-1.627-4.455-3.251-8.91a2.41,2.41,0,0,1-.106-.311.572.572,0,0,1,.372-.751.548.548,0,0,1,.743.371c.229.577.435,1.164.648,1.747q1.412,3.862,2.822,7.724C4451.447,141.291,4451.492,141.449,4451.576,141.709Z" transform="translate(-104.832 -20.698)"/><path class="a" d="M4679.924,141.763c.039-.127.076-.268.126-.4,1.133-3.108,2.262-6.217,3.412-9.319a1.245,1.245,0,0,1,.506-.583.542.542,0,0,1,.52.142,1.092,1.092,0,0,1,.108.75c-.274.871-.61,1.722-.923,2.58-.834,2.283-1.658,4.57-2.517,6.844a1.054,1.054,0,0,1-.6.59C4680.175,142.458,4679.966,142.162,4679.924,141.763Z" transform="translate(-312.347 -20.858)"/><path class="a" d="M4609.083,141.093c.885-.21,1.769-.43,2.658-.625a.591.591,0,0,0,.518-.526,24.163,24.163,0,0,1,.737-2.719c.221.9.466,1.794.651,2.7a.626.626,0,0,0,.559.554,20.171,20.171,0,0,1,2.622.733,7.9,7.9,0,0,1-1.472.358,1.876,1.876,0,0,0-2,1.969,5.577,5.577,0,0,1-.446,1.576c-.22-.9-.459-1.8-.648-2.705a.631.631,0,0,0-.555-.56c-.883-.2-1.761-.414-2.641-.624Z" transform="translate(-249.282 -26.011)"/><path class="a" d="M4715.5,212.511c-.774.191-1.544.4-2.325.561a.542.542,0,0,0-.486.486,15.874,15.874,0,0,1-.668,2.3c-.19-.773-.361-1.551-.585-2.315a.753.753,0,0,0-.433-.443c-.77-.225-1.556-.4-2.359-.7.624-.149,1.241-.337,1.873-.436a1.063,1.063,0,0,0,1.063-1.05,7.3,7.3,0,0,1,.542-1.883,11.188,11.188,0,0,1,.386,1.6,1.336,1.336,0,0,0,1.379,1.393,10.431,10.431,0,0,1,1.625.389Z" transform="translate(-337.911 -89.93)"/><path class="a" d="M4408.032,203.021c.169.71.345,1.418.5,2.13a.58.58,0,0,0,.517.526c.75.146,1.487.353,2.39.575-.9.22-1.632.424-2.378.572a.579.579,0,0,0-.526.516,13.781,13.781,0,0,1-.624,2.165c-.17-.7-.354-1.4-.5-2.1a.646.646,0,0,0-.584-.593c-.733-.137-1.452-.344-2.334-.56.874-.214,1.587-.42,2.314-.554a.675.675,0,0,0,.611-.635c.14-.69.327-1.37.5-2.054Z" transform="translate(-67.192 -84.565)"/><path class="a" d="M4366.817,172.16c-.143-.581-.305-1.158-.422-1.745a.6.6,0,0,0-.548-.565,9.64,9.64,0,0,1-1.762-.506c.582-.144,1.159-.312,1.747-.423a.6.6,0,0,0,.561-.551,8.836,8.836,0,0,1,.514-1.73,12.936,12.936,0,0,1,.346,1.474.9.9,0,0,0,.9.88,5.688,5.688,0,0,1,1.454.429,15.94,15.94,0,0,1-1.638.4.722.722,0,0,0-.684.7c-.1.549-.253,1.09-.384,1.634Z" transform="translate(-31.228 -52.194)"/></g></svg>